<?xml version="1.0" encoding="UTF-8"?>
<svg version="1.1" xmlns="http://www.w3.org/2000/svg" width="512" height="512">
<path d="M0 0 C0.99 0.495 0.99 0.495 2 1 C1.72849121 1.48654053 1.45698242 1.97308105 1.17724609 2.47436523 C-10.35216684 23.30098357 -21.19351331 46.76586729 -14.375 71 C-10.31143673 82.42075149 -3.79071217 89.61577074 6.8125 95.25 C21.51849889 102.15982974 38.04107006 101.34385304 53.68359375 98.11328125 C54.73800659 97.89830994 55.79241943 97.68333862 56.87878418 97.46185303 C73.12489182 94.03689718 89.16170709 89.68906516 105.21740723 85.4785347 C109.98456019 84.23040512 114.75415357 82.99166557 119.5234375 81.75170898 C135.89996495 77.49083432 152.26905202 73.20249002 168.625 68.86328125 C241.59838189 49.5309709 315.00724974 31.79450092 388.34038162 13.88437271 C390.90904321 13.25695086 393.47758203 12.62902825 396.04611206 12.00106812 C400.00419435 11.03373557 403.96284194 10.0687514 407.92198181 9.10575676 C409.32730373 8.76371815 410.73248452 8.42109895 412.13749695 8.07779121 C421.0629141 5.89800034 430.00675702 3.87940619 439 2 C436.70553378 4.59308032 434.5995281 5.78748359 431.40063477 7.07446289 C430.46003708 7.45729935 429.51943939 7.8401358 428.55033875 8.23457336 C427.52439102 8.64314072 426.4984433 9.05170807 425.44140625 9.47265625 C423.82967278 10.12520638 423.82967278 10.12520638 422.18537903 10.79093933 C418.64718643 12.2217559 415.10484846 13.64200731 411.5625 15.0625 C409.09617733 16.05809105 406.63013433 17.05434116 404.16455078 18.05175781 C399.77883227 19.82528372 395.3922634 21.59666838 391.0044632 23.36503792 C381.3341178 27.26295704 371.68194967 31.20453016 362.03488159 35.15963745 C358.46426681 36.62333593 354.89280585 38.0849638 351.32136536 39.54664612 C348.66044829 40.63570921 345.99964693 41.72505457 343.33886719 42.81445312 C335.14708984 46.1681464 326.95421287 49.51915199 318.76144409 52.87042236 C314.16775789 54.74948456 309.57410688 56.62863279 304.98046875 58.5078125 C304.07198685 58.87945526 303.16350494 59.25109802 302.22749329 59.63400269 C296.77763946 61.86349797 291.32795251 64.09340061 285.87840271 66.32363892 C281.3564922 68.17423205 276.83451367 70.02465895 272.3125 71.875 C271.41471832 72.24236267 270.51693665 72.60972534 269.59194946 72.98822021 C255.83801068 78.61577521 242.07998875 84.23327773 228.32034302 89.84686279 C207.77504404 98.2289333 187.23976408 106.63499313 166.71386719 115.06445312 C161.90602026 117.0387876 157.09761384 119.01175686 152.2890625 120.984375 C151.48212952 121.31540726 150.67519653 121.64643951 149.84381104 121.98750305 C145.77156855 123.65803448 141.69927282 125.32843609 137.62695312 126.9987793 C129.47688418 130.34185638 121.32755251 133.68671095 113.1796875 137.03515625 C105.88019963 140.03488802 98.57851187 143.02920604 91.27487183 146.01881409 C87.19188719 147.69054691 83.11028733 149.36553131 79.03125 151.046875 C-5.27084114 185.78926058 -5.27084114 185.78926058 -44.93359375 169.4375 C-56.49950349 164.01551938 -66.41798388 156.29432048 -71 144 C-78.49152521 122.50257982 -70.4160298 99.10473767 -61.24414062 79.56933594 C-47.13855191 50.43919159 -25.57145538 20.18799109 0 0 Z " fill="#000000" transform="translate(73,168)"/>
</svg>
